<svg id="Layer_2" data-name="Layer 2" xmlns="http://www.w3.org/2000/svg" viewBox="0 0 100 100"><defs><style>.cls-1{fill:#dc1c12;}</style></defs><title>icon_publications</title><path class="cls-1" d="M47.54,5.71,46,4.21h-41V89.8H66.3V24.47L64.8,23Zm13.62,79H10.22V9.35H39.31c7.64,0,4,18.11,4,18.11s17.66-4.29,17.89,3.81Zm32.26-68L76.73,0h-26l5.14,5.14H70.58v.17c2.3,0,3.43,1.85,3.93,4.3C75.4,14.34,74,21.09,74,21.09l.07,0,0,.19s13.78-3.35,15.56,2.21a1.21,1.21,0,0,1,.05.18,1.06,1.06,0,0,1,0,.19,3.8,3.8,0,0,1,.06.59v47H71.71v5.15H94.92V18.2Z"/></svg>