<svg xmlns="http://www.w3.org/2000/svg" xmlns:xlink="http://www.w3.org/1999/xlink" preserveAspectRatio="xMidYMid" width="100" height="100" viewBox="0 0 100 100">
  <defs>
    <style>
      .cls-1 {
        fill: #dc0000;
        fill-rule: evenodd;
      }
    </style>
  </defs>
  <path d="M2.253,86.906 L32.161,59.191 C27.635,52.893 25.191,45.359 25.191,37.450 C25.191,27.473 29.077,18.092 36.133,11.034 C43.189,3.979 52.571,0.094 62.549,0.095 C72.528,0.094 81.910,3.979 88.966,11.034 C96.022,18.091 99.908,27.473 99.908,37.450 C99.908,47.429 96.022,56.810 88.966,63.866 C81.910,70.923 72.528,74.810 62.549,74.810 C54.640,74.810 47.108,72.365 40.809,67.841 L13.093,97.746 C10.100,100.740 5.247,100.740 2.253,97.746 C-0.740,94.755 -0.740,89.899 2.253,86.906 ZM82.944,57.845 C94.189,46.598 94.189,28.299 82.944,17.057 C71.698,5.811 53.401,5.811 42.155,17.057 C30.910,28.299 30.910,46.598 42.155,57.845 C53.401,69.090 71.698,69.090 82.944,57.845 Z" class="cls-1"/>
</svg>
