<svg xmlns="http://www.w3.org/2000/svg" width="100" height="100" viewBox="0 0 100 100">
  <defs>
    <style>
      .cls-1 {
        fill: #fff;
        fill-rule: evenodd;
      }
    </style>
  </defs>
  <path class="cls-1" d="M88.225,42.4H79.573A30.539,30.539,0,1,1,19.422,50a30.284,30.284,0,0,1,1-7.6H11.775V84.2A3.81,3.81,0,0,0,15.6,88H84.4a3.812,3.812,0,0,0,3.828-3.8V42.4Zm0-26.6A3.813,3.813,0,0,0,84.4,12H72.935a3.811,3.811,0,0,0-3.823,3.8V27.2A3.812,3.812,0,0,0,72.935,31H84.4a3.814,3.814,0,0,0,3.828-3.8V15.8ZM50,31A19,19,0,1,0,69.112,50,19.055,19.055,0,0,0,50,31M88.225,99.4H11.775A11.435,11.435,0,0,1,.31,88V12A11.432,11.432,0,0,1,11.775.6H88.225A11.431,11.431,0,0,1,99.69,12V88A11.435,11.435,0,0,1,88.225,99.4"/>
</svg>
