<svg xmlns="http://www.w3.org/2000/svg" width="100" height="100" viewBox="0 0 100 100">
  <defs>
    <style>
      .cls-1 {
        fill: #fff;
        fill-rule: evenodd;
      }
    </style>
  </defs>
  <path class="cls-1" d="M99.566,60.352V95.76H78.319V62.723c0-8.3-3.074-13.963-10.765-13.963a11.594,11.594,0,0,0-10.9,7.51,13.614,13.614,0,0,0-.7,5V95.76H34.7s0.286-55.955,0-61.751H55.948v8.754c-0.043.065-.1,0.136-0.14,0.2h0.14v-0.2c2.823-4.2,7.865-10.2,19.151-10.2C89.084,32.559,99.566,41.384,99.566,60.352ZM12.462,4.24C5.19,4.24.434,8.849,0.434,14.907c0,5.929,4.619,10.677,11.745,10.677h0.143c7.411,0,12.021-4.748,12.021-10.677C24.2,8.849,19.734,4.24,12.462,4.24ZM1.7,95.76H22.944V34.009H1.7V95.76Z"/>
</svg>
