<svg xmlns="http://www.w3.org/2000/svg" width="300" height="209" viewBox="0 0 300 209">
  <defs>
    <style>
      .cls-1 {
        fill: #555;
        fill-rule: evenodd;
      }
    </style>
  </defs>
  <path class="cls-1" d="M26.169,79.879c0-44.13,55.661-79.9,124.324-79.9s124.331,35.774,124.331,79.9-55.665,79.9-124.331,79.9S26.169,124.009,26.169,79.879ZM77.375,51.2H72.931v-1.9a0.979,0.979,0,0,0-.979-0.98H69.12a0.977,0.977,0,0,0-.975.949v49.38a0.981,0.981,0,0,0,.975.981h2.832a0.98,0.98,0,0,0,.979-0.951V96.743h4.444l2.584,2.591a0.981,0.981,0,0,0,.692.291h58.727a0.978,0.978,0,0,0,.975-0.981v-0.26c29.928-1.829,52.825-12,52.825-24.363s-22.9-22.616-52.825-24.458V49.294a0.979,0.979,0,0,0-.975-0.98H80.652a0.982,0.982,0,0,0-.692.291Zm96.776,98.143a106.524,106.524,0,0,0-7.672-9.709,28.662,28.662,0,0,0-11.225-7.668q-5.932-2.074-18.8-2.074l-67.909-.052c20.909,12.966,49.9,21,81.945,21A185.84,185.84,0,0,0,174.151,149.34ZM186.706,120.5a56.349,56.349,0,0,1,9.012,4.088,88.119,88.119,0,0,1,18.738,14.359C245.47,126.226,265.9,104.52,265.9,79.879c0-39.188-51.668-70.955-115.4-70.955a174.9,174.9,0,0,0-54.606,8.431h35.228c55.54,0,100.562,25.225,100.562,56.341C231.676,93.3,213.809,110.472,186.706,120.5ZM172.37,186.6h18.184a0.724,0.724,0,0,1,.854.742l-1.04,5.911a1.1,1.1,0,0,1-1.116.741H171.068a0.552,0.552,0,0,0-.555.367l-1.172,6.654a0.363,0.363,0,0,0,.428.37H197.2a0.723,0.723,0,0,1,.851.74l-1.037,5.913a1.1,1.1,0,0,1-1.116.739H159.13a0.724,0.724,0,0,1-.854-0.739l6.242-35.482a1.092,1.092,0,0,1,1.113-.741H202.4a0.724,0.724,0,0,1,.851.741l-1.037,5.911a1.09,1.09,0,0,1-1.113.739H173.672a0.547,0.547,0,0,0-.558.371l-1.175,6.655A0.364,0.364,0,0,0,172.37,186.6Zm-104.6,0H85.958a0.725,0.725,0,0,1,.854.742l-1.04,5.911a1.094,1.094,0,0,1-1.109.741H66.474a0.553,0.553,0,0,0-.558.367l-1.168,6.654a0.362,0.362,0,0,0,.424.37H92.6a0.723,0.723,0,0,1,.851.74l-1.037,5.913a1.093,1.093,0,0,1-1.113.739H54.534a0.725,0.725,0,0,1-.855-0.739l6.243-35.482a1.093,1.093,0,0,1,1.109-.741H97.8a0.725,0.725,0,0,1,.854.741l-1.044,5.911a1.091,1.091,0,0,1-1.113.739H69.076a0.547,0.547,0,0,0-.558.371l-1.168,6.655A0.359,0.359,0,0,0,67.774,186.6Zm46.462-14.571L128.984,184.8a0.491,0.491,0,0,0,.328.112,0.669,0.669,0,0,0,.417-0.146l19.189-12.741a1.336,1.336,0,0,1,.734-0.216h5.561a0.724,0.724,0,0,1,.851.741l-6.243,35.482a1.091,1.091,0,0,1-1.109.739h-7.866a0.723,0.723,0,0,1-.854-0.739l4-22.713a0.363,0.363,0,0,0-.43-0.367,0.686,0.686,0,0,0-.355.1L128.237,195a1.346,1.346,0,0,1-.734.218,1.008,1.008,0,0,1-.662-0.218l-11.458-9.932a0.511,0.511,0,0,0-.331-0.109,0.556,0.556,0,0,0-.558.377l-3.993,22.7a1.093,1.093,0,0,1-1.113.739h-7.865a0.722,0.722,0,0,1-.851-0.739l6.242-35.482a1.088,1.088,0,0,1,1.11-.741h5.56A1,1,0,0,1,114.235,172.025ZM220.658,179.2a0.555,0.555,0,0,0-.558.371l-3.769,21.438a0.364,0.364,0,0,0,.43.37h16.217c2.718,0,5.209-1.656,5.568-3.7l2.6-14.785c0.362-2.04-1.55-3.7-4.262-3.7H220.658Zm-14.539,29.571a0.722,0.722,0,0,1-.851-0.739l6.236-35.482a1.1,1.1,0,0,1,1.116-.741h25.557c8.144,0,13.877,4.963,12.8,11.089l-2.6,14.785c-1.075,6.124-8.555,11.088-16.692,11.088H206.119Zm74.868-14.783a0.553,0.553,0,0,0-.558.367l-2.408,13.677a1.087,1.087,0,0,1-1.11.739h-7.865a0.724,0.724,0,0,1-.855-0.739l2.409-13.677a0.361,0.361,0,0,0-.427-0.367H269.68c-8.145,0-13.871-4.964-12.8-11.09l1.819-10.348a1.1,1.1,0,0,1,1.117-.741h7.862a0.724,0.724,0,0,1,.851.741l-1.82,10.348c-0.355,2.043,1.551,3.7,4.269,3.7h11.793c2.715,0,5.209-1.653,5.567-3.7l1.82-10.348a1.1,1.1,0,0,1,1.116-.741h7.858a0.728,0.728,0,0,1,.858.741L298.172,182.9c-1.075,6.126-8.555,11.09-16.692,11.09h-0.493ZM35.158,179.2H14.61a0.551,0.551,0,0,0-.555.371l-1.171,6.655a0.361,0.361,0,0,0,.427.368H33.859c2.715,0,5.206-1.653,5.56-3.7S37.869,179.2,35.158,179.2ZM47.44,197.685l-1.819,10.349a1.1,1.1,0,0,1-1.116.739H36.639a0.722,0.722,0,0,1-.851-0.739l1.822-10.349c0.358-2.042-1.55-3.695-4.269-3.695H12.8a0.544,0.544,0,0,0-.552.367L9.835,208.034a1.093,1.093,0,0,1-1.113.739H0.857a0.722,0.722,0,0,1-.851-0.739l6.243-35.482a1.087,1.087,0,0,1,1.109-.741H37.245c8.145,0,13.871,4.963,12.8,11.089a12.085,12.085,0,0,1-5.054,7.393A8.169,8.169,0,0,1,47.44,197.685Z"/>
</svg>
