<svg xmlns="http://www.w3.org/2000/svg" width="100" height="100" viewBox="0 0 100 100">
  <defs>
    <style>
      .cls-1 {
        fill: #fff;
        fill-rule: evenodd;
      }
    </style>
  </defs>
  <path class="cls-1" d="M99.787,20.615a42.533,42.533,0,0,1-11.734,3.061A19.7,19.7,0,0,0,97.036,12.92a42.146,42.146,0,0,1-12.973,4.718A20.9,20.9,0,0,0,69.151,11.5c-11.281,0-20.429,8.7-20.429,19.437a18.589,18.589,0,0,0,.529,4.43A59.019,59.019,0,0,1,7.145,15.057a18.637,18.637,0,0,0-2.766,9.772A19.2,19.2,0,0,0,13.468,41.01a21.156,21.156,0,0,1-9.253-2.431c0,0.081,0,.162,0,0.245,0,9.418,7.042,17.275,16.387,19.06a21.511,21.511,0,0,1-9.225.332,20.346,20.346,0,0,0,19.082,13.5,42.321,42.321,0,0,1-25.37,8.321,43.775,43.775,0,0,1-4.874-.272A59.962,59.962,0,0,0,31.528,88.5c37.576,0,58.124-29.62,58.124-55.308q0-1.263-.059-2.515A40.513,40.513,0,0,0,99.787,20.615Z"/>
</svg>
