<svg xmlns="http://www.w3.org/2000/svg" width="100" height="100" viewBox="0 0 100 100">
  <defs>
    <style>
      .cls-1 {
        fill: #fff;
        fill-rule: evenodd;
      }
    </style>
  </defs>
  <path class="cls-1" d="M85.336,9.084Q64.591,8.445,57.248,31.078A20.245,20.245,0,0,1,64.615,29.6q7.564,0,6.679,8.037-0.443,4.87-6.679,14.171-6.26,9.317-9.358,9.311-4.032,0-7.368-14.382Q46.765,42.5,43.882,25.155q-2.7-16.071-14.276-15.016-4.9.425-14.7,8.461Q7.756,24.737.4,30.872l4.679,5.706c4.464-2.963,7.076-4.439,7.8-4.439q5.134,0,9.594,15.219,4,13.977,8.035,27.927c3.991,10.153,8.911,15.231,14.7,15.231q14.041,0,34.338-24.956Q99.16,41.664,99.827,27.9,100.727,9.51,85.336,9.084Z"/>
</svg>
