<svg xmlns="http://www.w3.org/2000/svg" width="100" height="100" viewBox="0 0 100 100">
  <defs>
    <style>
      .cls-1 {
        fill: #fff;
        fill-rule: evenodd;
      }
    </style>
  </defs>
  <path class="cls-1" d="M79.244,73.106H73.673L73.7,69.923a2.605,2.605,0,0,1,2.624-2.572h0.355a2.607,2.607,0,0,1,2.629,2.572ZM58.358,66.284a2.369,2.369,0,0,0-2.569,2.078V83.839a2.631,2.631,0,0,0,5.142,0V68.362A2.37,2.37,0,0,0,58.358,66.284Zm33.916-8.655V87.07c0,7.061-6.225,12.84-13.831,12.84H21.56c-7.612,0-13.834-5.779-13.834-12.84V57.629c0-7.061,6.222-12.84,13.834-12.84H78.442C86.049,44.789,92.274,50.568,92.274,57.629ZM25.353,90.265l0-31.011H32.4V54.663l-18.8-.028v4.517l5.867,0.015v31.1h5.881ZM46.49,63.873H40.612V80.434A29.075,29.075,0,0,1,40.6,84.45c-0.478,1.284-2.627,2.647-3.464.139a32.418,32.418,0,0,1-.02-4.042L37.1,63.873H31.25l0.017,16.413c0,2.515-.056,4.391.02,5.245,0.143,1.5.093,3.26,1.513,4.26,2.644,1.876,7.713-.278,8.981-2.959L41.77,90.251l4.72,0.005V63.873ZM65.3,82.837L65.285,69.052c0-5.252-4-8.4-9.422-4.149l0.025-10.248-5.875.009-0.028,35.37,4.828-.071,0.441-2.2C61.427,93.335,65.306,89.519,65.3,82.837ZM83.7,81.01l-4.408.024c0,0.171-.008.37-0.012,0.586v2.42a2.386,2.386,0,0,1-2.409,2.349H76.005A2.385,2.385,0,0,1,73.6,84.04V77.675H83.689V73.937a58.145,58.145,0,0,0-.3-7.025c-0.722-4.939-7.77-5.725-11.33-3.2a6.556,6.556,0,0,0-2.468,3.268,18.122,18.122,0,0,0-.749,5.828v8.216C68.842,94.694,85.708,92.76,83.7,81.01ZM61.085,36.394A3.935,3.935,0,0,0,62.5,38.151a4.154,4.154,0,0,0,2.4.655,3.8,3.8,0,0,0,2.252-.689A5.335,5.335,0,0,0,68.8,36.042L68.694,38.31h6.554V10.893H70.089v21.34a2.15,2.15,0,0,1-4.3,0V10.893H60.408V29.387c0,2.354.043,3.925,0.112,4.72A8.062,8.062,0,0,0,61.085,36.394ZM41.226,20.908a22.526,22.526,0,0,1,.667-6.169A6.879,6.879,0,0,1,44.3,11.181a7.036,7.036,0,0,1,4.443-1.348,8.228,8.228,0,0,1,3.9.866,6.464,6.464,0,0,1,2.515,2.249A8.811,8.811,0,0,1,56.372,15.8a22.437,22.437,0,0,1,.329,4.49v6.933a37.31,37.31,0,0,1-.3,5.6,8.78,8.78,0,0,1-1.291,3.332,6.082,6.082,0,0,1-2.523,2.28,8.139,8.139,0,0,1-3.557.735,9.969,9.969,0,0,1-3.789-.628,5.172,5.172,0,0,1-2.415-1.9,8.336,8.336,0,0,1-1.231-3.074,29.189,29.189,0,0,1-.365-5.407V20.908ZM46.358,31.8a2.611,2.611,0,1,0,5.2,0V17.2a2.61,2.61,0,1,0-5.2,0V31.8ZM28.223,39.17h6.182l0.007-21.03L41.717,0.126H34.956L31.072,13.507,27.133,0.09H20.442l7.772,18.062Z"/>
</svg>
